inDegrees=yes
name=ik_OwnShooting_orientations2
DataType=double
version=3
OpenSimVersion=4.3-2021-08-27-4bc7ad9
endheader
time	pelvis_tilt	pelvis_list	pelvis_rotation	pelvis_tx	pelvis_ty	pelvis_tz	hip_flexion_r	hip_adduction_r	hip_rotation_r	knee_angle_r	knee_angle_r_beta	ankle_angle_r	subtalar_angle_r	mtp_angle_r	hip_flexion_l	hip_adduction_l	hip_rotation_l	knee_angle_l	knee_angle_l_beta	ankle_angle_l	subtalar_angle_l	mtp_angle_l	lumbar_extension	lumbar_bending	lumbar_rotation	arm_flex_r	arm_add_r	arm_rot_r	elbow_flex_r	pro_sup_r	wrist_flex_r	wrist_dev_r	arm_flex_l	arm_add_l	arm_rot_l	elbow_flex_l	pro_sup_l	wrist_flex_l	wrist_dev_l
12.5	5.649351254971966	4.966153033245183	61.70891371222477	0	0.9399999999999999	0	42.54305877202104	-10.24399292993632	0	59.49499002883635	1.03838346444439	-5.074038774102724	0	0	42.54305877202104	-10.24399292993632	0	59.49499002883635	1.03838346444439	-5.074038774102724	0	0	-5.112555841281424	1.269099939133599	0.08335833433352938	71.07463309341763	-37.22597841416812	0.1228565324211184	76.49116454202448	44.99086812385859	0	0	0	-10.82803852085747	0	76.49116454202448	44.99086812385859	0	0
12.51	5.638941866948467	4.955849912374116	61.70473328498693	0	0.9399999999999999	0	42.54381505559581	-10.24373071294995	0	59.49511187421704	1.038385591047462	-5.073934992529876	0	0	42.54381505559581	-10.24373071294995	0	59.49511187421704	1.038385591047462	-5.073934992529876	0	0	-5.103956631287936	1.260891273459138	0.08956169190568292	70.71803973495692	-37.02567125246769	-0.1508888529028428	76.49070590381065	44.99087588702223	0	0	0	-10.8286959830551	0	76.49070590381065	44.99087588702223	0	0
12.52	5.647989191959946	4.951639186139811	61.69528529909595	0	0.9399999999999999	0	42.54442261915023	-10.24352059084956	0	59.49520990133351	1.0383873019434	-5.073851885487947	0	0	42.54442261915023	-10.24352059084956	0	59.49520990133351	1.0383873019434	-5.073851885487947	0	0	-5.113054340422879	1.288259290535396	0.09482722166250319	70.36956178097221	-36.67933411125973	-0.4763438087813198	76.49033745394233	44.99088211123642	0	0	0	-10.82922475636514	0	76.49033745394233	44.99088211123642	0	0
12.53	5.637568892079084	4.947529174044013	61.68530089170767	0	0.9399999999999999	0	42.54507190754464	-10.24329619616426	0	59.49531467631361	1.038389130611777	-5.073763157497988	0	0	42.54507190754464	-10.24329619616426	0	59.49531467631361	1.038389130611777	-5.073763157497988	0	0	-5.113045525230824	1.274254818403391	0.10236949332949	70.11121557181934	-36.43068969469599	-0.753733899499704	76.48994370028068	44.99088875950431	0	0	0	-10.82978995079796	0	76.48994370028068	44.99088875950431	0	0
12.54	5.641610471563937	4.93194978872594	61.66641343434	0	0.9399999999999999	0	42.545485966321	-10.24315377677244	0	59.49538170285355	1.038390300445585	-5.073706907375841	0	0	42.545485966321	-10.24315377677244	0	59.49538170285355	1.038390300445585	-5.073706907375841	0	0	-5.125798828916523	1.295493734194838	0.1104947918858353	69.97337825521136	-36.17284420271653	-0.9168933293544821	76.4896925977267	44.9908929830698	0	0	0	-10.83015122392268	0	76.4896925977267	44.9908929830698	0	0
12.55	5.631516746511303	4.9262529656628	61.67425676686504	0	0.9399999999999999	0	42.54603760809604	-10.24296369259327	0	59.49547087677819	1.038391856824177	-5.073631804757007	0	0	42.54603760809604	-10.24296369259327	0	59.49547087677819	1.038391856824177	-5.073631804757007	0	0	-5.110824363488409	1.27586573270955	0.09638086842378041	69.87515546045209	-35.92003917194805	-1.182830428578599	76.48935805970576	44.99089861832596	0	0	0	-10.8306320827277	0	76.48935805970576	44.99089861832596	0	0
12.56	5.617115849497636	4.914243321726265	61.67655767948221	0	0.9399999999999999	0	42.54687206056763	-10.24267535088472	0	59.49560542127994	1.038394205068723	-5.073517831017991	0	0	42.54687206056763	-10.24267535088472	0	59.49560542127994	1.038394205068723	-5.073517831017991	0	0	-5.097428905724255	1.243340143360885	0.1070933929899677	69.81237580922331	-35.75931491882709	-1.553192162570323	76.48885201541297	44.99090716273629	0	0	0	-10.83135819569295	0	76.48885201541297	44.99090716273629	0	0
12.57	5.612891626890578	4.885751237725473	61.66593434235081	0	0.9399999999999999	0	42.54708640677895	-10.24260220899385	0	59.49564029923121	1.038394813803809	-5.073488998510454	0	0	42.54708640677895	-10.24260220899385	0	59.49564029923121	1.038394813803809	-5.073488998510454	0	0	-5.085013766435043	1.274220009868611	0.1192595144976602	69.84541429422589	-35.62055089552571	-1.713043169060323	76.48872202579807	44.99090933529885	0	0	0	-10.83154595169085	0	76.48872202579807	44.99090933529885	0	0
